<?xml version="1.0" standalone="no"?>
<!DOCTYPE svg PUBLIC "-//W3C//DTD SVG 20010904//EN"
 "http://www.w3.org/TR/2001/REC-SVG-20010904/DTD/svg10.dtd">
<svg version="1.0" xmlns="http://www.w3.org/2000/svg"
 width="260.000000pt" height="260.000000pt" viewBox="0 0 260.000000 260.000000"
 preserveAspectRatio="xMidYMid meet">
<metadata>
Created by potrace 1.14, written by Peter Selinger 2001-2017
</metadata>
<g transform="translate(0.000000,260.000000) scale(0.100000,-0.100000)"
fill="#000000" stroke="none">
<path d="M0 1300 l0 -1300 1300 0 1300 0 0 1300 0 1300 -1300 0 -1300 0 0
-1300z m1106 405 c34 -8 73 -19 87 -26 l26 -12 -20 -51 c-12 -28 -22 -52 -23
-53 -1 -1 -30 7 -65 17 -111 35 -223 22 -251 -29 -5 -11 -10 -36 -10 -57 0
-52 44 -89 167 -142 168 -72 220 -136 211 -262 -6 -81 -43 -134 -121 -174 -75
-39 -215 -47 -322 -19 l-70 18 -3 67 -3 66 50 -18 c69 -27 169 -41 226 -33 93
12 139 91 95 161 -16 26 -46 45 -134 87 -121 57 -191 110 -213 162 -20 49 -17
147 7 193 52 102 200 144 366 105z m414 -345 l0 -350 175 0 175 0 0 -60 0 -60
-240 0 -240 0 0 410 0 410 65 0 65 0 0 -350z"/>
</g>
</svg>
